# xmcd CD database file
#
# Track frame offsets:
#	150
#	9377
#	21525
#	30886
#	49056
#	63267
#	78437
#	93860
#	102152
#	126313
#	151046
#	194465
#
# Disc length: 2705 seconds
#
# Revision: 0
# Processed by: cddbd v1.5.1PL0 Copyright (c) Steve Scherf et al.
# Submitted via: CDex 1.51
#
DISCID=890a8f0c
DTITLE=Yumegaoka Mirai Orchestra(YMO) - Yumegaoka Active Theater 97(M4CD-YAT97sp2)
DYEAR=2003
DGENRE=Anime
TTITLE0=Ikeda Otouto - Yumeno Sougen nite
TTITLE1=Ikeda Otouto - BLOODY STARLIGHT
TTITLE2=Ikeda Otouto - DREAM DOOR
TTITLE3=Ikeda Otouto - proLogue to epiLogue
TTITLE4=Kawahara Hotaru - Yumegaoka no Kibou(POPS Arr)
TTITLE5=Asari Yuki - Honnnori LOVE(Standard Ver)
TTITLE6=Asari Yuki - Mirai no Theme
TTITLE7=Mircrest - Yumegaoka no Kibou(Orchestra)
TTITLE8=Mircrest - MIRAI he 1 DEAI
TTITLE9=Mircrest - MIRAI he 2 NICHIJYOU
TTITLE10=Mircrest - MIRAI he 1 WAKARE
TTITLE11=YMO - DATA-TRACK
EXTD=YEAR: 2003
EXTT0=
EXTT1=
EXTT2=
EXTT3=
EXTT4=
EXTT5=
EXTT6=
EXTT7=
EXTT8=
EXTT9=
EXTT10=
EXTT11=
PLAYORDER=
